<svg width="429" height="429" viewBox="0 0 429 429" fill="none" xmlns="http://www.w3.org/2000/svg">
<rect width="429" height="429" rx="20" fill="#141414"/>
<circle cx="20.5" cy="21.5" r="4.5" fill="#D9D9D9"/>
<circle cx="20.5" cy="408.5" r="4.5" fill="#D9D9D9"/>
<circle cx="407.5" cy="21.5" r="4.5" fill="#D9D9D9"/>
<circle cx="407.5" cy="408.5" r="4.5" fill="#D9D9D9"/>
<g clip-path="url(#clip0_308_390)">
<path d="M199.67 239.162C197.848 239.162 196.016 239.027 194.209 239.188C190.539 239.511 190.044 236.57 191.356 234.159C193.319 230.562 195.615 227.146 197.781 223.658C203.315 214.735 208.849 205.816 214.394 196.898C219.824 188.167 225.249 179.431 230.736 170.731C231.095 170.164 232.116 169.461 232.522 169.617C233.11 169.846 233.803 170.814 233.771 171.439C233.688 173.23 233.345 175.026 232.959 176.786C232.236 180.076 231.413 183.351 230.622 186.626C229.632 190.744 228.628 194.862 227.638 198.98C226.91 202.005 226.196 205.035 225.467 208.065C224.895 210.46 224.338 212.86 223.723 215.245C223.369 216.624 223.51 216.89 224.91 216.895C228.727 216.906 232.543 216.895 236.354 216.906C237.593 216.906 238.879 216.718 239.712 218.056C240.665 219.587 240.206 220.998 239.394 222.325C236.442 227.157 233.443 231.957 230.445 236.757C224.452 246.363 218.455 255.963 212.462 265.568C208.37 272.128 204.283 278.693 200.186 285.253C199.936 285.649 199.644 286.066 199.275 286.331C198.551 286.852 197.755 286.742 197.453 285.904C197.125 284.998 196.786 283.921 196.979 283.035C198.062 278.142 199.316 273.284 200.488 268.406C201.456 264.371 202.367 260.321 203.33 256.286C204.304 252.209 205.309 248.138 206.298 244.061C206.574 242.926 206.845 241.791 207.121 240.656C207.376 239.626 207.084 239.11 205.913 239.141C203.835 239.199 201.753 239.157 199.67 239.157V239.162Z" fill="#FF5234"/>
<path d="M215.945 332.99C169.422 332.99 122.899 332.99 76.3755 332.99C70.4977 332.99 67.0563 330.6 65.4059 325.024C64.5365 322.083 65.1144 319.198 66.7491 316.554C76.0996 301.403 85.4396 286.253 94.7693 271.092C104.01 256.078 113.225 241.047 122.472 226.043C131.015 212.173 139.6 198.335 148.149 184.471C154.975 173.397 161.753 162.297 168.578 151.229C176.081 139.051 183.619 126.9 191.122 114.728C196.406 106.158 201.763 97.6354 206.897 88.9774C209.916 83.8856 216.497 82.5841 220.948 85.661C222.646 86.8376 223.958 88.7535 225.077 90.5601C232.454 102.404 239.743 114.306 247.047 126.197C253.857 137.281 260.641 148.376 267.451 159.455C274.937 171.637 282.455 183.804 289.942 195.987C297.022 207.508 304.066 219.051 311.147 230.572C320.763 246.217 330.405 261.846 340.026 277.486C348.064 290.548 356.04 303.647 364.141 316.668C367.38 321.874 365.906 327.924 362.434 330.991C360.903 332.344 359.06 332.88 357.071 332.99C356.379 333.031 355.686 333.005 354.989 333.005C308.637 333.005 262.291 333.005 215.94 333.005L215.945 332.99ZM337.641 312.331C337.47 311.93 337.402 311.691 337.277 311.488C335.772 309.015 334.263 306.547 332.748 304.079C325.261 291.892 317.769 279.709 310.293 267.521C303.514 256.473 296.751 245.41 289.963 234.367C282.861 222.804 275.734 211.262 268.638 199.699C262.26 189.312 255.914 178.916 249.541 168.529C243.783 159.137 238.009 149.75 232.241 140.363C227.086 131.965 221.932 123.568 216.768 115.175C216.101 114.092 215.898 114.098 215.216 115.191C214.092 116.987 212.988 118.794 211.879 120.595C202.799 135.35 193.72 150.104 184.64 164.859C174.878 180.717 165.122 196.575 155.349 212.428C144.994 229.239 134.628 246.045 124.263 262.851C115.485 277.08 106.697 291.308 97.9138 305.537C96.5654 307.724 95.243 309.926 93.7749 312.331H337.636H337.641Z" fill="#FF5234"/>
</g>
<defs>
<clipPath id="clip0_308_390">
<rect width="300.943" height="249" fill="white" transform="translate(65 84)"/>
</clipPath>
</defs>
</svg>
