<svg width="301" height="249" viewBox="0 0 301 249" fill="none" xmlns="http://www.w3.org/2000/svg">
<g>
<path d="M134.67 155.162C132.848 155.162 131.016 155.027 129.209 155.188C125.539 155.511 125.044 152.570 126.356 150.159C128.319 146.562 130.615 143.146 132.781 139.658C138.315 130.735 143.849 121.816 149.394 112.898C154.824 104.167 160.249 95.431 165.736 86.731C166.095 86.164 167.116 85.461 167.522 85.617C168.110 85.846 168.803 86.814 168.771 87.439C168.688 89.230 168.345 91.026 167.959 92.786C167.236 96.076 166.413 99.351 165.622 102.626C164.632 106.744 163.628 110.862 162.638 114.980C161.910 118.005 161.196 121.035 160.467 124.065C159.895 126.460 159.338 128.860 158.723 131.245C158.369 132.624 158.510 132.890 159.910 132.895C163.727 132.906 167.543 132.895 171.354 132.906C172.593 132.906 173.879 132.718 174.712 134.056C175.665 135.587 175.206 136.998 174.394 138.325C171.442 143.157 168.443 147.957 165.445 152.757C159.452 162.363 153.455 171.963 147.462 181.568C143.370 188.128 139.283 194.693 135.186 201.253C134.936 201.649 134.644 202.066 134.275 202.331C133.551 202.852 132.755 202.742 132.453 201.904C132.125 200.998 131.786 199.921 131.979 199.035C133.062 194.142 134.316 189.284 135.488 184.406C136.456 180.371 137.367 176.321 138.330 172.286C139.304 168.209 140.309 164.138 141.298 160.061C141.574 158.926 141.845 157.791 142.121 156.656C142.376 155.626 142.084 155.110 140.913 155.141C138.835 155.199 136.753 155.157 134.670 155.157V155.162Z" fill="#FFCC00"/>
<path d="M150.945 248.990C104.422 248.990 57.899 248.990 11.3755 248.990C5.4977 248.990 2.0563 246.600 0.4059 241.024C-0.4635 238.083 0.1144 235.198 1.7491 232.554C11.0996 217.403 20.4396 202.253 29.7693 187.092C39.010 172.078 48.225 157.047 57.472 142.043C66.015 128.173 74.600 114.335 83.149 100.471C89.975 89.397 96.753 78.297 103.578 67.229C111.081 55.051 118.619 42.900 126.122 30.728C131.406 22.158 136.763 13.6354 141.897 4.9774C144.916 -0.1144 151.497 -1.4159 155.948 1.661C157.646 2.8376 158.958 4.7535 160.077 6.5601C167.454 18.404 174.743 30.306 182.047 42.197C188.857 53.281 195.641 64.376 202.451 75.455C209.937 87.637 217.455 99.804 224.942 111.987C232.022 123.508 239.066 135.051 246.147 146.572C255.763 162.217 265.405 177.846 275.026 193.486C283.064 206.548 291.040 219.647 299.141 232.668C302.380 237.874 300.906 243.924 297.434 246.991C295.903 248.344 294.060 248.880 292.071 248.990C291.379 249.031 290.686 249.005 289.989 249.005C243.637 249.005 197.291 249.005 150.940 249.005L150.945 248.990ZM272.641 228.331C272.470 227.930 272.402 227.691 272.277 227.488C270.772 225.015 269.263 222.547 267.748 220.079C260.261 207.892 252.769 195.709 245.293 183.521C238.514 172.473 231.751 161.410 224.963 150.367C217.861 138.804 210.734 127.262 203.638 115.699C197.260 105.312 190.914 94.916 184.541 84.529C178.783 75.137 173.009 65.750 167.241 56.363C162.086 47.965 156.932 39.568 151.768 31.175C151.101 30.092 150.898 30.098 150.216 31.191C149.092 32.987 147.988 34.794 146.879 36.595C137.799 51.350 128.720 66.104 119.640 80.859C109.878 96.717 100.122 112.575 90.349 128.428C79.994 145.239 69.628 162.045 59.263 178.851C50.485 193.080 41.697 207.308 32.9138 221.537C31.5654 223.724 30.243 225.926 28.7749 228.331H272.636H272.641Z" fill="#FFCC00"/>
</g>
</svg>
