<svg width="1870" height="955" viewBox="0 0 1870 955" fill="none" xmlns="http://www.w3.org/2000/svg">
<path d="M943.13 42.5538C943.322 187.645 943.24 332.765 943.24 477.856C943.24 622.508 943.24 767.132 943.295 911.784C943.295 916.789 943.185 921.959 944.367 926.744C948.795 944.839 963.013 954.794 983.913 954.794H1356.93C1383.82 954.794 1398.29 940.164 1398.29 913.076C1398.29 799.307 1398.04 645.566 1398.54 531.825C1398.59 513.4 1400 497.505 1370.8 497.505C1341.6 497.505 1302.57 497.56 1281.5 497.505C1274.5 497.505 1271.13 492.001 1273 484.001L1384.29 33.2587C1388.03 13.266 1377.94 1.11082 1357.64 1.11082C1232.85 1.02832 1108.05 1.00082 983.28 1.24833C976.598 1.27583 969.338 2.45834 963.398 5.29087C948.052 12.6335 943.13 25.9986 943.13 42.5538Z" fill="black"/>
<path d="M512.064 1.24916C559.694 0.919162 609.325 1.00147 656.955 1.11147C676.48 1.16658 690.422 10.7366 694.465 26.9064C695.62 31.4714 695.51 36.4221 695.51 41.2072C695.565 216.302 695.747 322.166 695.802 497.261C695.805 497.299 696.133 501.5 700 501.5C703.866 501.5 703.886 497.304 703.886 497.261C703.886 321.479 703.914 215.724 703.886 39.9415C703.886 24.5966 708.588 11.7537 723.163 4.93373C728.746 2.32132 735.511 1.2767 741.753 1.24916C789.384 0.94666 839.014 0.973811 886.645 1.13881C912.44 1.22131 927.016 16.1266 927.016 41.8117C927.016 332.242 926.906 622.674 927.236 913.105C927.263 937.002 911.56 955.07 885.462 954.987C761.354 954.63 637.245 954.63 513.136 954.987C488.056 955.042 471.61 938.212 471.693 913.709C472.188 768.37 471.941 623.059 471.941 477.72L471.885 477.692C471.885 332.6 471.968 187.481 471.776 42.3898C471.776 25.8071 476.863 12.4967 492.181 5.20912C498.121 2.37668 505.381 1.30416 512.064 1.24916Z" fill="black"/>
<path d="M413.281 1C427.003 1.00004 438.994 4.10856 447.821 15.6035C453.568 23.1109 455.466 31.6088 455.466 40.6836C455.494 156.267 455.521 351.879 455.466 467.463C455.466 486.273 443.806 497.768 424.941 497.878C414.71 497.949 370.998 497.928 337.132 497.912H337.114C318.647 497.903 303.11 497.896 297.531 497.905C294.001 497.911 289.001 501.001 290.501 508.001C290.589 508.543 353.504 898.015 357.501 917.501C361.501 937 350.565 946.95 348.001 949.001C343.001 953.001 339.001 954.739 327.501 954.794L320.215 954.739L249.602 954.737L234.494 954.736C149.106 954.732 135.816 954.732 41.8334 954.794C25.1685 954.794 11.226 949.596 4.10288 933.839C1.05124 927.074 0.225965 918.796 0.22593 911.206C-0.00941972 787.424 -0.00258599 663.601 0.0042499 539.756L0.00620302 477.279H0.0335468C0.0335468 332.848 0.0335466 188.416 0.00620302 43.9844C0.00620302 34.5243 0.63818 25.2838 6.38609 17.1162C14.6634 5.3185 26.3236 1.00062 40.2113 1.05566C49.3759 1.09228 58.5281 1.08056 67.6849 1.06836C72.2649 1.06226 76.8501 1.05566 81.4339 1.05566L147.74 1.05859C236.252 1.06299 324.775 1.06604 413.281 1ZM228 199C225.791 199 224 200.791 224 203V294C224 296.209 225.791 298 228 298C230.209 298 232 296.209 232 294V203C232 200.791 230.209 199 228 199Z" fill="black"/>
<path d="M1414.79 40.6565V477.389L1414.84 477.416C1414.84 623.471 1414.82 769.497 1414.84 915.524C1414.84 942 1433.5 954.767 1453.12 954.767C1500.07 955.042 1549.01 955.124 1595.95 954.547C1603.05 954.437 1610.86 951.632 1616.99 947.892C1627.88 941.264 1631.04 929.989 1631.04 917.614C1631.02 835.663 1631 753.17 1631 671.219C1631 671.219 1630.78 666 1635 666C1639.22 666 1638.81 671.219 1638.81 671.219C1638.81 752.482 1638.76 835.718 1638.81 916.981C1638.84 941.512 1652.15 954.849 1676.54 954.849C1726.93 954.849 1779.31 954.629 1829.69 954.932C1854.35 955.069 1870.06 938.019 1870 914.699C1869.7 790.617 1869.86 664.564 1869.81 540.51C1869.81 536.687 1869.67 532.672 1868.63 529.015C1864.12 512.982 1851.96 504.594 1833.34 504.539C1798.78 504.429 1763.18 504.484 1728.61 504.484C1728.61 504.484 1723 505 1723 500.5C1723 496 1728.57 496.274 1728.57 496.274H1832.99C1841.07 496.274 1848.94 495.394 1855.76 490.307C1865.93 482.689 1869.95 472.541 1869.95 459.974C1869.84 321.015 1869.86 180.083 1869.86 41.1515C1869.86 39.3089 1869.81 37.4664 1869.73 35.6514C1868.9 17.5012 1855.51 2.43104 1837.28 1.85353C1806.86 0.89102 1773.39 0.94602 1742.95 1.41353C1721 1.08352 1715.64 7.50051 1712.5 24.0005C1704.47 66.1585 1695.29 113.642 1687.23 155.8C1673.26 228.676 1673.44 228.767 1659.5 301.643C1657.11 314.21 1655.04 326.86 1652.13 339.29C1652.13 339.29 1651.5 344 1647 343C1642.5 342 1644 337 1644 337C1652.31 293.495 1648.09 320.417 1656.43 276.912L1658.98 263.585C1673.01 190.424 1687.03 117.285 1700.98 44.1215C1701.77 39.8865 1704.34 26.0005 1703.5 20.0005C1700.48 -1.58647 1685.88 1.08352 1664.95 1.08352C1595.79 1.00102 1524.63 1.02852 1455.46 1.11102C1450.92 1.11102 1446.25 1.41353 1441.88 2.51354C1424.96 6.80359 1414.79 21.2962 1414.79 40.6565Z" fill="black"/>
</svg>
