<svg width="54" height="55" viewBox="0 0 54 55" fill="none" xmlns="http://www.w3.org/2000/svg">
<path d="M27 0.5C41.9117 0.5 54 12.5883 54 27.5C54 42.4117 41.9117 54.5 27 54.5C12.0883 54.5 0 42.4117 0 27.5C0 12.5883 12.0883 0.5 27 0.5ZM26.7754 13.7881C26.0851 13.7889 25.5266 14.3498 25.5273 15.04L25.5488 36.5234L18.7324 29.7217C18.2438 29.2342 17.4524 29.2352 16.9648 29.7236C16.4772 30.2123 16.4782 31.0036 16.9668 31.4912L25.8779 40.3838C25.881 40.3869 25.8836 40.3905 25.8867 40.3936C26.3449 40.8508 27.07 40.8786 27.5605 40.4775L27.6553 40.3916L36.5566 31.4707C37.0443 30.982 37.0434 30.1908 36.5547 29.7031C36.066 29.2156 35.2747 29.2164 34.7871 29.7051L28.0488 36.457L28.0273 15.0371C28.0266 14.3468 27.4657 13.7874 26.7754 13.7881Z" fill="#141414"/>
</svg>
