<svg width="160" height="46" viewBox="0 0 160 46" fill="none" xmlns="http://www.w3.org/2000/svg">
<path d="M113.879 30.4654H103.935C103.107 30.4654 102.435 29.7939 102.435 28.9654V1.00461C102.435 0.452329 101.987 0.00461338 101.435 0.00461338H86.292C85.7397 0.00461338 85.292 0.452329 85.292 1.00461V45C85.292 45.5523 85.7397 46 86.292 46H113.879C114.431 46 114.879 45.5523 114.879 45V31.4654C114.879 30.9132 114.431 30.4654 113.879 30.4654Z" fill="#141414"/>
<path d="M80 25C80 36.598 70.598 46 59 46C47.402 46 38 36.598 38 25V1C38 0.447716 38.4477 0 39 0H53.391C53.8607 0 54.2671 0.326856 54.3678 0.785608L60.7129 29.6934C60.8803 30.456 61.5562 30.9998 62.3369 31C63.2552 31 64 30.2552 64 29.3369V1C64 0.447716 64.4477 0 65 0H79C79.5523 0 80 0.447715 80 1V25Z" fill="#141414"/>
<path d="M18 0C27.3888 0 35 7.16344 35 16C35 23.0228 30.1921 28.9868 23.5056 31.1398C22.9662 31.3135 22.4079 30.9689 22.2864 30.4155L20.2871 21.3066C20.1197 20.544 19.4438 20.0002 18.6631 20C17.7448 20 17 20.7448 17 21.6631V45C17 45.5523 16.5523 46 16 46H1C0.447715 46 0 45.5523 0 45V1C0 0.447715 0.447715 0 1 0H18Z" fill="#141414"/>
<path d="M136 18.6738C136 19.4062 136.594 19.9998 137.326 20C137.951 20 138.491 19.5639 138.623 18.9531L142.537 0.789357C142.636 0.328817 143.043 0 143.515 0H158.364C159.052 0 159.534 0.677543 159.309 1.32713L152.539 20.8838C152.189 21.8946 152.173 22.9908 152.492 24.0117L158.964 44.7015C159.165 45.3454 158.684 46 158.01 46H143.932C143.471 46 143.07 45.6848 142.96 45.237L139.312 30.2822C139.129 29.5298 138.455 29.0002 137.681 29C136.753 29 136 29.7527 136 30.6807V45C136 45.5523 135.552 46 135 46H120C119.448 46 119 45.5523 119 45V1C119 0.447715 119.448 0 120 0H135C135.552 0 136 0.447715 136 1V18.6738Z" fill="#141414"/>
</svg>
