<svg width="151" height="78" viewBox="0 0 151 78" fill="none" xmlns="http://www.w3.org/2000/svg">
<path d="M76.1562 3.35705C76.1718 15.073 76.1651 26.7912 76.1651 38.5072C76.1651 50.1876 76.1651 61.8658 76.1696 73.5462C76.1696 73.9504 76.1607 74.3679 76.2562 74.7542C76.6137 76.2154 77.7618 77.0193 79.4494 77.0193H109.57C111.742 77.0193 112.91 75.8379 112.91 73.6506C112.91 64.4639 112.89 52.0495 112.93 42.8651C112.934 41.3772 113.048 40.0937 110.69 40.0937C108.333 40.0937 105.18 40.0982 103.479 40.0937C102.914 40.0937 102.642 39.6493 102.793 39.0033L111.779 2.60649C112.081 0.992101 111.266 0.0105894 109.628 0.0105894C99.5504 0.00392758 89.4733 0.00170697 79.3983 0.0216925C78.8587 0.0239131 78.2725 0.1194 77.7928 0.348123C76.5537 0.941027 76.1562 2.02025 76.1562 3.35705Z" fill="#FF3B42"/>
<path d="M71.5957 0.0128711C73.6783 0.0196988 74.8554 1.22332 74.8555 3.29705C74.8555 26.749 74.8464 50.2016 74.8731 73.6535C74.8751 75.5829 73.6071 77.0419 71.5 77.0353C61.4784 77.0065 51.4562 77.0065 41.4346 77.0353C39.4097 77.0396 38.0824 75.6806 38.0889 73.7023C38.1289 61.9664 38.1084 50.2322 38.1084 38.4963L38.1035 38.4943C38.1035 26.7784 38.1103 15.0599 38.0948 3.34393C38.0948 2.00492 38.5063 0.930428 39.7432 0.341973C40.2228 0.11332 40.8091 0.0261008 41.3487 0.0216602C45.1946 -0.00498388 49.202 0.00203608 53.0479 0.010918C54.6245 0.0153592 55.7507 0.788205 56.0772 2.09393C56.1704 2.46241 56.1612 2.86198 56.1612 3.24822C56.1656 17.3869 56.1802 25.9357 56.1846 40.0744C56.1852 40.0825 56.2145 40.4162 56.5244 40.4162C56.8335 40.4159 56.8379 40.0834 56.8379 40.0744C56.8379 25.8803 56.8401 17.3406 56.8379 3.14666C56.8379 1.90756 57.2176 0.870224 58.3946 0.319512C58.8453 0.108608 59.3915 0.0238805 59.8955 0.0216602C63.7416 -0.00276631 67.7496 -0.000452528 71.5957 0.0128711Z" fill="#FF3B42"/>
<path d="M33.3713 0.00170898C34.4792 0.00170898 35.4476 0.25269 36.1604 1.18042C36.6244 1.78656 36.7785 2.47313 36.7785 3.20581C36.7807 12.539 36.7829 28.3345 36.7785 37.6677C36.7785 39.1865 35.8368 40.1147 34.3137 40.1238C33.4876 40.1295 29.9606 40.128 27.2268 40.1267H27.2209C25.73 40.126 24.4751 40.125 24.0246 40.1257C23.7397 40.1266 23.3364 40.3765 23.4572 40.9412C23.4572 40.9412 28.5436 72.4276 28.8674 74.0076C29.1903 75.5817 28.3082 76.3855 28.1008 76.5515C27.6972 76.8744 27.3737 77.0149 26.4455 77.0193L25.8567 77.0144H18.9211C12.0388 77.0141 10.9617 77.0142 3.37814 77.0193C2.03256 77.0192 0.906412 76.5993 0.331266 75.3269C0.0849656 74.7807 0.0178008 74.1125 0.0177897 73.4998C-0.00121429 63.5046 -0.000340388 53.5059 0.000211598 43.5056V38.4607H0.00216472C0.00216472 26.7981 0.00241956 15.1351 0.000211598 3.47241C0.000219888 2.70866 0.0518629 1.96289 0.515837 1.30347C1.18418 0.350876 2.12596 0.00219104 3.24728 0.0065918C3.89449 0.00917617 4.54112 0.00837619 5.18771 0.00756836C5.27998 0.00745307 5.37278 0.0076908 5.46506 0.00756836C5.83479 0.00707564 6.20536 0.00659206 6.57541 0.0065918H11.9299C19.0769 0.00694664 26.2249 0.00704111 33.3713 0.00170898ZM18.4104 15.99C18.2322 15.9902 18.0881 16.135 18.0881 16.3132V23.6609C18.0881 23.8391 18.2322 23.9839 18.4104 23.9841C18.5888 23.9841 18.7336 23.8393 18.7336 23.6609V16.3132C18.7336 16.1348 18.5888 15.99 18.4104 15.99Z" fill="#FF3B42"/>
<path d="M114.242 3.20394V38.4695L114.247 38.4717C114.247 50.2654 114.244 62.0569 114.247 73.8483C114.247 75.9863 115.753 77.0172 117.338 77.0172C121.128 77.0394 125.08 77.046 128.871 76.9994C129.444 76.9905 130.075 76.764 130.57 76.462C131.449 75.9268 131.704 75.0164 131.704 74.0171C131.702 67.3997 131.701 60.7384 131.701 54.121C131.701 54.121 131.683 53.6996 132.024 53.6996C132.365 53.6996 132.332 54.121 132.332 54.121C132.332 60.6829 132.327 67.4041 132.332 73.966C132.334 75.9468 133.409 77.0238 135.379 77.0238C139.447 77.0238 143.676 77.006 147.745 77.0305C149.736 77.0416 151.004 75.6648 151 73.7817C150.976 63.7623 150.989 53.5836 150.984 43.5664C150.984 43.2578 150.973 42.9336 150.889 42.6382C150.525 41.3436 149.543 40.6663 148.04 40.6619C145.249 40.653 142.374 40.6574 139.583 40.6574C139.583 40.6574 139.13 40.6991 139.13 40.3357C139.13 39.9723 139.579 39.9945 139.579 39.9945H148.011C148.664 39.9945 149.299 39.9234 149.85 39.5126C150.671 38.8975 150.996 38.0781 150.996 37.0633C150.987 25.8425 150.989 14.4625 150.989 3.24391C150.989 3.09513 150.984 2.94635 150.978 2.79979C150.911 1.33419 149.83 0.117289 148.357 0.0706563C145.901 -0.00706519 143.199 -0.00262396 140.741 0.0351265C138.968 0.00847911 138.536 0.526642 138.282 1.859C137.634 5.2632 136.892 9.09745 136.242 12.5017C135.114 18.3863 135.128 18.3936 134.002 24.2782C133.809 25.293 133.642 26.3145 133.407 27.3182C133.407 27.3182 133.356 27.6985 132.993 27.6178C132.63 27.537 132.751 27.1333 132.751 27.1333C133.421 23.6203 133.081 25.7942 133.754 22.2812L133.96 21.2078C135.093 15.2993 136.225 9.3925 137.351 3.48374C137.416 3.14176 137.623 2.02049 137.555 1.536C137.311 -0.207119 136.132 0.00847911 134.442 0.00847911C128.858 0.00181727 123.111 0.00403788 117.526 0.0106997C117.16 0.0106997 116.783 0.0351265 116.429 0.123951C115.064 0.470367 114.242 1.64063 114.242 3.20394Z" fill="#FF3B42"/>
</svg>
