<svg width="378" height="552" viewBox="0 0 378 552" fill="none" xmlns="http://www.w3.org/2000/svg">
<path d="M358 0C369.046 0 378 8.95431 378 20V532C378 543.046 369.046 552 358 552H20C8.95431 552 0 543.046 0 532V20C0 8.95431 8.95431 0 20 0H358ZM172.956 399.876C147.023 399.876 126 422.085 126 449.479V499.082C126 500.693 127.314 502 128.935 502H258.065C259.686 502 261 500.693 261 499.082V455.314C261 453.703 259.686 452.397 258.065 452.396H189.576C186.881 452.396 184.695 450.223 184.695 447.544C184.696 445.266 186.292 443.294 188.53 442.806L215.263 436.972C216.887 436.617 217.898 434.989 217.389 433.415C211.07 413.905 193.567 399.876 172.956 399.876ZM128.935 268.573C127.314 268.573 126 269.88 126 271.491V312.341C126 313.952 127.314 315.259 128.935 315.259H212.098C214.792 315.259 216.978 317.432 216.979 320.111C216.978 322.389 215.382 324.361 213.144 324.85L128.306 343.364C126.959 343.658 126 344.844 126 346.214V388.205C126 389.816 127.314 391.122 128.935 391.122H199.369C233.407 391.122 261 363.689 261 329.848C261 296.007 233.407 268.573 199.369 268.573H128.935ZM218.345 166.803C216.724 166.803 215.409 168.109 215.409 169.721V198.735C215.409 201.153 213.438 203.112 211.007 203.112H128.948C127.327 203.112 126.014 204.419 126.014 206.03V250.215C126.014 251.826 127.328 253.133 128.948 253.133H258.065C259.686 253.133 261 251.826 261 250.215V169.721C261 168.109 259.686 166.803 258.065 166.803H218.345ZM129.895 37.1631C127.988 36.5072 126 37.9144 126 39.9199V83.249C126 84.6236 126.965 85.812 128.316 86.1016L181.623 97.5215C183.416 97.9058 184.695 99.4825 184.695 101.306C184.695 103.442 182.953 105.174 180.804 105.175H128.935C127.314 105.175 126 106.481 126 108.093V151.86C126 153.472 127.314 154.778 128.935 154.778H258.065C259.686 154.778 261 153.472 261 151.86V108.093C261 106.481 259.686 105.175 258.065 105.175H216.041C213.318 105.175 211.109 102.979 211.108 100.271C211.109 98.0117 212.664 96.0453 214.872 95.5098L258.761 84.8662C260.075 84.5475 261 83.3763 261 82.0312V40.9551C261 38.9864 259.079 37.5825 257.189 38.1699L196.469 57.0537C193.473 57.9853 190.256 57.9379 187.289 56.917L129.895 37.1631Z" fill="#141414"/>
</svg>
