<svg width="1898" height="753" viewBox="0 0 1898 753" fill="none" xmlns="http://www.w3.org/2000/svg">
<path d="M1354.12 529.625H1236.75C1226.98 529.625 1219.05 521.697 1219.05 511.918V11.8588C1219.05 5.33945 1213.77 0.0544577 1207.25 0.0544577H1028.51C1021.99 0.0544577 1016.71 5.33945 1016.71 11.8588V741.196C1016.71 747.715 1021.99 753 1028.51 753H1354.12C1360.64 753 1365.93 747.715 1365.93 741.196V541.429C1365.93 534.91 1360.64 529.625 1354.12 529.625Z" fill="#141414"/>
<path d="M986.248 505.109C986.248 642.015 875.275 753 738.383 753C601.491 753 490.518 642.015 490.518 505.109V11.8044C490.518 5.28499 495.802 0 502.321 0H672.179C677.723 0 682.519 3.85833 683.708 9.27359L758.6 438.511C760.576 447.513 768.553 453.933 777.769 453.935C788.607 453.935 797.398 445.143 797.398 434.303V11.8044C797.398 5.28499 802.683 0 809.201 0H974.445C980.963 0 986.248 5.28499 986.248 11.8043V505.109Z" fill="#141414"/>
<path d="M242.456 0C353.273 0 470.5 75 470.5 240.284C470.5 375 378 461.5 288.438 477.585C282.072 479.635 275.482 475.568 274.048 469.035L239.451 301.511C237.475 292.509 229.497 286.089 220.282 286.087C209.444 286.087 200.653 294.879 200.653 305.719V741.196C200.653 747.715 195.368 753 188.85 753H11.8031C5.28443 753 0 747.715 0 741.196V11.8043C0 5.28498 5.28443 0 11.8031 0H242.456Z" fill="#141414"/>
<path d="M1585.22 280.432C1585.22 289.077 1592.23 296.085 1600.87 296.087C1608.25 296.087 1614.63 290.939 1616.18 283.729L1674.5 11.8043C1675.67 6.36797 1680.48 2.4865 1686.04 2.4865H1871.31C1879.42 2.4865 1885.12 10.4845 1882.46 18.1524L1792.43 346.52C1788.3 358.452 1788.11 371.391 1791.88 383.443L1897.27 737.672C1899.64 745.273 1893.97 753 1886 753H1698.84C1693.4 753 1688.66 749.28 1687.37 743.993L1624.32 457.462C1622.15 448.58 1614.2 442.328 1605.06 442.326C1594.11 442.326 1585.22 451.211 1585.22 462.165V741.196C1585.22 747.715 1579.94 753 1573.42 753H1406.37C1399.85 753 1394.57 747.715 1394.57 741.196V11.8043C1394.57 5.28498 1399.85 0 1406.37 0H1573.42C1579.94 0 1585.22 5.28499 1585.22 11.8043V280.432Z" fill="#141414"/>
</svg>
