<svg width="13" height="13" viewBox="0 0 13 13" fill="none" xmlns="http://www.w3.org/2000/svg">
<g clip-path="url(#clip0_401_813)">
<mask id="path-1-inside-1_401_813" fill="white">
<path d="M6.0028 0.0157032C11.4513 -0.343013 14.9461 5.71667 11.8239 10.2168C9.14503 14.078 3.34861 13.8886 0.928431 9.86423C-1.55025 5.73977 1.20401 0.331312 6.0028 0.0157032ZM6.2091 0.868617C1.81829 1.12726 -0.652691 6.06923 1.8691 9.71644C4.39089 13.3636 9.49913 12.8587 11.4621 9.14988C13.425 5.44109 10.5383 0.611511 6.2091 0.868617Z"/>
</mask>
<path d="M6.0028 0.0157032L6.26531 4.00708L6.26559 4.00706L6.0028 0.0157032ZM11.8239 10.2168L8.5374 7.93662L8.53736 7.93668L11.8239 10.2168ZM0.928431 9.86423L-2.50007 11.9247L-2.49946 11.9257L0.928431 9.86423ZM6.2091 0.868617L6.44432 4.8617L6.44624 4.86158L6.2091 0.868617ZM6.0028 0.0157032L6.26559 4.00706C8.43643 3.86414 9.71345 6.24156 8.5374 7.93662L11.8239 10.2168L15.1103 12.497C20.1787 5.19179 14.4661 -4.55016 5.74002 -3.97566L6.0028 0.0157032ZM11.8239 10.2168L8.53736 7.93668C7.51253 9.41385 5.28011 9.33892 4.35632 7.80278L0.928431 9.86423L-2.49946 11.9257C1.41711 18.4383 10.7775 18.7421 15.1104 12.4969L11.8239 10.2168ZM0.928431 9.86423L4.35693 7.80381C3.37877 6.17616 4.5349 4.12089 6.26531 4.00708L6.0028 0.0157032L5.7403 -3.97567C-2.12687 -3.45826 -6.47927 5.30338 -2.50007 11.9247L0.928431 9.86423ZM6.2091 0.868617L5.97389 -3.12446C-1.47362 -2.68576 -5.74939 5.73131 -1.42102 11.9913L1.8691 9.71644L5.15922 7.44155C4.444 6.40715 5.11021 4.94028 6.44432 4.86169L6.2091 0.868617ZM1.8691 9.71644L-1.42102 11.9913C2.8868 18.2216 11.6969 17.2571 14.9974 11.021L11.4621 9.14988L7.9267 7.27874C7.60657 7.88358 7.0841 8.16582 6.58438 8.20224C6.12385 8.23581 5.59408 8.07048 5.15922 7.44155L1.8691 9.71644ZM11.4621 9.14988L14.9974 11.021C18.3374 4.71045 13.5888 -3.5767 5.97197 -3.12435L6.2091 0.868617L6.44624 4.86158C6.95296 4.83149 7.44654 5.06766 7.7968 5.63184C8.16274 6.22128 8.15982 6.83827 7.9267 7.27874L11.4621 9.14988Z" fill="#272727" mask="url(#path-1-inside-1_401_813)"/>
<path d="M8.76469 4.48174C9.16343 4.39707 9.45287 4.81121 9.22655 5.14837C8.10884 6.29842 7.07888 7.58856 5.95192 8.72322C5.71329 8.96339 5.50083 9.12658 5.18522 8.87101C4.74491 8.31985 4.20299 7.84413 3.7596 7.29759C3.58255 7.07897 3.45014 6.8311 3.70109 6.59247C3.99823 6.31073 4.25379 6.55244 4.46625 6.76798C4.82343 7.13286 5.13288 7.55161 5.49467 7.91495L8.52606 4.62646C8.57994 4.57873 8.69695 4.49714 8.76469 4.48328V4.48174Z" fill="#272727"/>
</g>
<defs>
<clipPath id="clip0_401_813">
<rect width="13" height="13" fill="white"/>
</clipPath>
</defs>
</svg>
