<svg width="566" height="122" viewBox="0 0 566 122" fill="none" xmlns="http://www.w3.org/2000/svg">
<path fill-rule="evenodd" clip-rule="evenodd" d="M217.49 95.6892C217.49 109.116 206.61 120 193.19 120H24.3006C10.8798 120 6.79325e-05 109.116 0 95.6892V26.3108C0 12.8843 10.8797 1.99997 24.3006 1.99997H193.19C206.61 1.99997 217.49 12.8843 217.49 26.3108V95.6892ZM63.9243 53.6711C63.9243 44.6161 56.1308 37.2757 46.5164 37.2756H29.1073C28.5418 37.2757 28.0833 37.7341 28.0833 38.3V83.3877C28.0833 83.9536 28.5418 84.4121 29.1073 84.4122H44.4684C45.0338 84.412 45.4924 83.9536 45.4924 83.3877V59.4734C45.4926 58.5326 46.2549 57.77 47.1951 57.77C47.9946 57.7702 48.6872 58.3275 48.8586 59.109L50.9054 68.4428C51.0299 69.0098 51.6015 69.3625 52.1537 69.1847C59.0008 66.9784 63.9241 60.8674 63.9243 53.6711ZM110.006 38.3C110.006 37.7341 109.548 37.2756 108.982 37.2756H94.6453C94.08 37.2759 93.6213 37.7342 93.6213 38.3V67.3376C93.6211 68.2785 92.8588 69.0411 91.9186 69.0411C91.1191 69.0408 90.4276 68.4835 90.2562 67.7021L83.7575 38.0804C83.6544 37.6103 83.2382 37.2756 82.7572 37.2756H68.0214C67.4559 37.2756 66.9963 37.7341 66.9963 38.3V62.8933C66.9963 74.7779 76.6247 84.412 88.5013 84.4122C100.378 84.4122 110.006 74.778 110.006 62.8933V38.3ZM145.724 69.5182C145.724 68.9525 145.265 68.4939 144.7 68.4938H134.517C133.669 68.4938 132.98 67.8055 132.98 66.9566V38.3047C132.98 37.7388 132.522 37.2791 131.956 37.2791H116.449C115.884 37.2793 115.425 37.7389 115.425 38.3047V83.3877C115.425 83.9536 115.884 84.412 116.449 84.4122H144.7C145.265 84.4121 145.724 83.9536 145.724 83.3877V69.5182ZM191.222 38.6347C191.452 37.9692 190.958 37.2756 190.254 37.2756H175.047C174.565 37.2758 174.149 37.6122 174.047 38.0839L170.039 56.6969C169.904 57.3226 169.351 57.7698 168.711 57.77C167.961 57.7698 167.353 57.1612 167.352 56.4108V38.3C167.352 37.7341 166.894 37.2756 166.328 37.2756H150.967C150.402 37.2759 149.943 37.7342 149.943 38.3V83.3877C149.943 83.9535 150.402 84.4119 150.967 84.4122H166.328C166.894 84.4122 167.352 83.9537 167.352 83.3877V68.7146C167.352 67.7637 168.124 66.9922 169.074 66.9922C169.867 66.9926 170.557 67.5354 170.745 68.3063L174.48 83.6311C174.592 84.0898 175.004 84.4122 175.476 84.4122H189.891C190.582 84.4122 191.075 83.7414 190.869 83.0815L184.241 61.8808C183.914 60.8347 183.931 59.7114 184.289 58.6757L191.222 38.6347Z" fill="#131313"/>
<mask id="path-2-outside-1_839_3533" maskUnits="userSpaceOnUse" x="231.49" y="-3.05176e-05" width="334" height="122" fill="black">
<rect fill="white" x="231.49" y="-3.05176e-05" width="334" height="122"/>
<path d="M233.49 26.3299C233.49 12.8928 243.969 1.99997 256.894 1.99997H540.086C553.012 1.99997 563.49 12.8928 563.49 26.3299V95.6701C563.49 109.107 553.012 120 540.086 120H256.894C243.969 120 233.49 109.107 233.49 95.6701V26.3299Z"/>
<path d="M262.49 46.7272H267.269V52.0091C269.291 48.2545 272.661 46.0909 277.318 46.0909C285.406 46.0909 290.675 53.2182 290.675 63.0182C290.675 72.8181 285.406 79.9454 277.318 79.9454C272.661 79.9454 269.291 77.7818 267.269 74.0272V90H262.49V46.7272ZM276.337 75.8091C282.219 75.8091 285.528 70.4 285.528 63.0182C285.528 55.6363 282.219 50.2272 276.337 50.2272C270.455 50.2272 267.147 55.6363 267.147 63.0182C267.147 70.4 270.455 75.8091 276.337 75.8091Z"/>
<path d="M305.849 79.9454C299.477 79.9454 295.678 75.8091 295.678 69.4454V46.7272H300.458V68.6181C300.458 73.0727 302.541 75.6818 307.32 75.6818C311.915 75.6818 315.775 71.8636 315.775 65.6272V46.7272H320.554V79.1818H315.775V73.7091C314.366 77.0182 311.425 79.9454 305.849 79.9454Z"/>
<path d="M327.681 34H332.461V79.1818H327.681V34Z"/>
<path d="M360.713 79.1818L349.132 61.5545L344.353 66.0727V79.1818H339.574V34H344.353V60.4727L358.752 46.7272H364.573L352.441 58.3091L366.104 79.1818H360.713Z"/>
<path d="M374.217 72.8181V79.1818H368.09V72.8181H374.217Z"/>
<path d="M392.534 79.9454C384.018 79.9454 378.993 75.7454 378.442 68.6818H383.405C383.895 74.0909 387.755 76 392.534 76C397.681 76 399.703 73.2636 399.703 70.2091C399.703 66.5818 397.436 65.6909 391.676 64.1636C385.611 62.5727 379.606 61.3 379.606 54.7454C379.606 49.6545 384.324 45.9636 391.676 45.9636C399.274 45.9636 403.563 50.1 404.298 55.7636H399.397C398.906 52.0091 396.149 49.9091 391.676 49.9091C387.265 49.9091 384.63 52.0091 384.63 54.4909C384.63 57.8 387.878 58.6272 393.208 60.0272C399.642 61.6818 404.727 63.4 404.727 69.8909C404.727 76.3181 399.825 79.9454 392.534 79.9454Z"/>
<path d="M409.837 46.7272H414.616V52.0091C416.638 48.2545 420.008 46.0909 424.665 46.0909C432.752 46.0909 438.022 53.2182 438.022 63.0182C438.022 72.8181 432.752 79.9454 424.665 79.9454C420.008 79.9454 416.638 77.7818 414.616 74.0272V90H409.837V46.7272ZM423.684 75.8091C429.566 75.8091 432.875 70.4 432.875 63.0182C432.875 55.6363 429.566 50.2272 423.684 50.2272C417.802 50.2272 414.494 55.6363 414.494 63.0182C414.494 70.4 417.802 75.8091 423.684 75.8091Z"/>
<path d="M452.155 79.9454C446.089 79.9454 441.248 76.3818 441.248 70.0818C441.248 63.4 446.211 61.7454 454.054 59.5182C459.017 58.1181 462.387 57.4182 462.387 54.5545C462.387 52.0091 459.936 49.9727 455.279 49.9727C450.623 49.9727 447.559 52.0091 447.192 56.1454H442.229C443.025 50.3545 447.621 46.0909 455.279 46.0909C462.754 46.0909 467.166 49.5909 467.166 55.8272V79.1818H462.571V73.1363C461.406 76.8909 458.037 79.9454 452.155 79.9454ZM453.196 76.1272C459.201 76.1272 462.571 70.7818 462.571 64.8636V58.4363C461.713 60.4727 459.323 61.5545 455.341 62.7C449.949 64.2272 446.395 65.7545 446.395 70.0818C446.395 74.0272 449.336 76.1272 453.196 76.1272Z"/>
<path d="M500.786 68.5545C499.193 75.7454 494.353 79.9454 487.184 79.9454C478.116 79.9454 472.112 72.7545 472.112 62.9545C472.112 53.2818 478.055 46.0909 487.123 46.0909C494.353 46.0909 499.193 50.3545 500.786 57.4818H495.701C494.598 52.7727 491.718 50.2272 487.123 50.2272C480.873 50.2272 477.258 55.5727 477.258 62.9545C477.258 70.4 480.935 75.8091 487.184 75.8091C492.025 75.8091 494.598 72.9454 495.701 68.5545H500.786Z"/>
<path d="M503.69 62.9545C503.69 53.2818 509.511 46.0909 518.701 46.0909C528.198 46.0909 533.897 54.1727 533.468 63.9727H508.837C509.082 71.0363 512.636 75.8091 518.946 75.8091C523.909 75.8091 526.544 72.6909 527.769 68.8727H532.855C531.078 75.3636 526.176 79.9454 518.946 79.9454C509.695 79.9454 503.69 72.7545 503.69 62.9545ZM528.321 60.0272C527.402 54.1727 524.093 50.2272 518.701 50.2272C513.248 50.2272 509.878 54.1091 509.021 60.0272H528.321Z"/>
</mask>
<path d="M262.49 46.7272H267.269V52.0091C269.291 48.2545 272.661 46.0909 277.318 46.0909C285.406 46.0909 290.675 53.2182 290.675 63.0182C290.675 72.8181 285.406 79.9454 277.318 79.9454C272.661 79.9454 269.291 77.7818 267.269 74.0272V90H262.49V46.7272ZM276.337 75.8091C282.219 75.8091 285.528 70.4 285.528 63.0182C285.528 55.6363 282.219 50.2272 276.337 50.2272C270.455 50.2272 267.147 55.6363 267.147 63.0182C267.147 70.4 270.455 75.8091 276.337 75.8091Z" fill="#131313"/>
<path d="M305.849 79.9454C299.477 79.9454 295.678 75.8091 295.678 69.4454V46.7272H300.458V68.6181C300.458 73.0727 302.541 75.6818 307.32 75.6818C311.915 75.6818 315.775 71.8636 315.775 65.6272V46.7272H320.554V79.1818H315.775V73.7091C314.366 77.0182 311.425 79.9454 305.849 79.9454Z" fill="#131313"/>
<path d="M327.681 34H332.461V79.1818H327.681V34Z" fill="#131313"/>
<path d="M360.713 79.1818L349.132 61.5545L344.353 66.0727V79.1818H339.574V34H344.353V60.4727L358.752 46.7272H364.573L352.441 58.3091L366.104 79.1818H360.713Z" fill="#131313"/>
<path d="M374.217 72.8181V79.1818H368.09V72.8181H374.217Z" fill="#131313"/>
<path d="M392.534 79.9454C384.018 79.9454 378.993 75.7454 378.442 68.6818H383.405C383.895 74.0909 387.755 76 392.534 76C397.681 76 399.703 73.2636 399.703 70.2091C399.703 66.5818 397.436 65.6909 391.676 64.1636C385.611 62.5727 379.606 61.3 379.606 54.7454C379.606 49.6545 384.324 45.9636 391.676 45.9636C399.274 45.9636 403.563 50.1 404.298 55.7636H399.397C398.906 52.0091 396.149 49.9091 391.676 49.9091C387.265 49.9091 384.63 52.0091 384.63 54.4909C384.63 57.8 387.878 58.6272 393.208 60.0272C399.642 61.6818 404.727 63.4 404.727 69.8909C404.727 76.3181 399.825 79.9454 392.534 79.9454Z" fill="#131313"/>
<path d="M409.837 46.7272H414.616V52.0091C416.638 48.2545 420.008 46.0909 424.665 46.0909C432.752 46.0909 438.022 53.2182 438.022 63.0182C438.022 72.8181 432.752 79.9454 424.665 79.9454C420.008 79.9454 416.638 77.7818 414.616 74.0272V90H409.837V46.7272ZM423.684 75.8091C429.566 75.8091 432.875 70.4 432.875 63.0182C432.875 55.6363 429.566 50.2272 423.684 50.2272C417.802 50.2272 414.494 55.6363 414.494 63.0182C414.494 70.4 417.802 75.8091 423.684 75.8091Z" fill="#131313"/>
<path d="M452.155 79.9454C446.089 79.9454 441.248 76.3818 441.248 70.0818C441.248 63.4 446.211 61.7454 454.054 59.5182C459.017 58.1181 462.387 57.4182 462.387 54.5545C462.387 52.0091 459.936 49.9727 455.279 49.9727C450.623 49.9727 447.559 52.0091 447.192 56.1454H442.229C443.025 50.3545 447.621 46.0909 455.279 46.0909C462.754 46.0909 467.166 49.5909 467.166 55.8272V79.1818H462.571V73.1363C461.406 76.8909 458.037 79.9454 452.155 79.9454ZM453.196 76.1272C459.201 76.1272 462.571 70.7818 462.571 64.8636V58.4363C461.713 60.4727 459.323 61.5545 455.341 62.7C449.949 64.2272 446.395 65.7545 446.395 70.0818C446.395 74.0272 449.336 76.1272 453.196 76.1272Z" fill="#131313"/>
<path d="M500.786 68.5545C499.193 75.7454 494.353 79.9454 487.184 79.9454C478.116 79.9454 472.112 72.7545 472.112 62.9545C472.112 53.2818 478.055 46.0909 487.123 46.0909C494.353 46.0909 499.193 50.3545 500.786 57.4818H495.701C494.598 52.7727 491.718 50.2272 487.123 50.2272C480.873 50.2272 477.258 55.5727 477.258 62.9545C477.258 70.4 480.935 75.8091 487.184 75.8091C492.025 75.8091 494.598 72.9454 495.701 68.5545H500.786Z" fill="#131313"/>
<path d="M503.69 62.9545C503.69 53.2818 509.511 46.0909 518.701 46.0909C528.198 46.0909 533.897 54.1727 533.468 63.9727H508.837C509.082 71.0363 512.636 75.8091 518.946 75.8091C523.909 75.8091 526.544 72.6909 527.769 68.8727H532.855C531.078 75.3636 526.176 79.9454 518.946 79.9454C509.695 79.9454 503.69 72.7545 503.69 62.9545ZM528.321 60.0272C527.402 54.1727 524.093 50.2272 518.701 50.2272C513.248 50.2272 509.878 54.1091 509.021 60.0272H528.321Z" fill="#131313"/>
<path d="M233.49 26.3299C233.49 12.8928 243.969 1.99997 256.894 1.99997H540.086C553.012 1.99997 563.49 12.8928 563.49 26.3299V95.6701C563.49 109.107 553.012 120 540.086 120H256.894C243.969 120 233.49 109.107 233.49 95.6701V26.3299Z" stroke="#141414" stroke-width="4" mask="url(#path-2-outside-1_839_3533)"/>
<path d="M262.49 46.7272H267.269V52.0091C269.291 48.2545 272.661 46.0909 277.318 46.0909C285.406 46.0909 290.675 53.2182 290.675 63.0182C290.675 72.8181 285.406 79.9454 277.318 79.9454C272.661 79.9454 269.291 77.7818 267.269 74.0272V90H262.49V46.7272ZM276.337 75.8091C282.219 75.8091 285.528 70.4 285.528 63.0182C285.528 55.6363 282.219 50.2272 276.337 50.2272C270.455 50.2272 267.147 55.6363 267.147 63.0182C267.147 70.4 270.455 75.8091 276.337 75.8091Z" stroke="#141414" stroke-width="4" mask="url(#path-2-outside-1_839_3533)"/>
<path d="M305.849 79.9454C299.477 79.9454 295.678 75.8091 295.678 69.4454V46.7272H300.458V68.6181C300.458 73.0727 302.541 75.6818 307.32 75.6818C311.915 75.6818 315.775 71.8636 315.775 65.6272V46.7272H320.554V79.1818H315.775V73.7091C314.366 77.0182 311.425 79.9454 305.849 79.9454Z" stroke="#141414" stroke-width="4" mask="url(#path-2-outside-1_839_3533)"/>
<path d="M327.681 34H332.461V79.1818H327.681V34Z" stroke="#141414" stroke-width="4" mask="url(#path-2-outside-1_839_3533)"/>
<path d="M360.713 79.1818L349.132 61.5545L344.353 66.0727V79.1818H339.574V34H344.353V60.4727L358.752 46.7272H364.573L352.441 58.3091L366.104 79.1818H360.713Z" stroke="#141414" stroke-width="4" mask="url(#path-2-outside-1_839_3533)"/>
<path d="M374.217 72.8181V79.1818H368.09V72.8181H374.217Z" stroke="#141414" stroke-width="4" mask="url(#path-2-outside-1_839_3533)"/>
<path d="M392.534 79.9454C384.018 79.9454 378.993 75.7454 378.442 68.6818H383.405C383.895 74.0909 387.755 76 392.534 76C397.681 76 399.703 73.2636 399.703 70.2091C399.703 66.5818 397.436 65.6909 391.676 64.1636C385.611 62.5727 379.606 61.3 379.606 54.7454C379.606 49.6545 384.324 45.9636 391.676 45.9636C399.274 45.9636 403.563 50.1 404.298 55.7636H399.397C398.906 52.0091 396.149 49.9091 391.676 49.9091C387.265 49.9091 384.63 52.0091 384.63 54.4909C384.63 57.8 387.878 58.6272 393.208 60.0272C399.642 61.6818 404.727 63.4 404.727 69.8909C404.727 76.3181 399.825 79.9454 392.534 79.9454Z" stroke="#141414" stroke-width="4" mask="url(#path-2-outside-1_839_3533)"/>
<path d="M409.837 46.7272H414.616V52.0091C416.638 48.2545 420.008 46.0909 424.665 46.0909C432.752 46.0909 438.022 53.2182 438.022 63.0182C438.022 72.8181 432.752 79.9454 424.665 79.9454C420.008 79.9454 416.638 77.7818 414.616 74.0272V90H409.837V46.7272ZM423.684 75.8091C429.566 75.8091 432.875 70.4 432.875 63.0182C432.875 55.6363 429.566 50.2272 423.684 50.2272C417.802 50.2272 414.494 55.6363 414.494 63.0182C414.494 70.4 417.802 75.8091 423.684 75.8091Z" stroke="#141414" stroke-width="4" mask="url(#path-2-outside-1_839_3533)"/>
<path d="M452.155 79.9454C446.089 79.9454 441.248 76.3818 441.248 70.0818C441.248 63.4 446.211 61.7454 454.054 59.5182C459.017 58.1181 462.387 57.4182 462.387 54.5545C462.387 52.0091 459.936 49.9727 455.279 49.9727C450.623 49.9727 447.559 52.0091 447.192 56.1454H442.229C443.025 50.3545 447.621 46.0909 455.279 46.0909C462.754 46.0909 467.166 49.5909 467.166 55.8272V79.1818H462.571V73.1363C461.406 76.8909 458.037 79.9454 452.155 79.9454ZM453.196 76.1272C459.201 76.1272 462.571 70.7818 462.571 64.8636V58.4363C461.713 60.4727 459.323 61.5545 455.341 62.7C449.949 64.2272 446.395 65.7545 446.395 70.0818C446.395 74.0272 449.336 76.1272 453.196 76.1272Z" stroke="#141414" stroke-width="4" mask="url(#path-2-outside-1_839_3533)"/>
<path d="M500.786 68.5545C499.193 75.7454 494.353 79.9454 487.184 79.9454C478.116 79.9454 472.112 72.7545 472.112 62.9545C472.112 53.2818 478.055 46.0909 487.123 46.0909C494.353 46.0909 499.193 50.3545 500.786 57.4818H495.701C494.598 52.7727 491.718 50.2272 487.123 50.2272C480.873 50.2272 477.258 55.5727 477.258 62.9545C477.258 70.4 480.935 75.8091 487.184 75.8091C492.025 75.8091 494.598 72.9454 495.701 68.5545H500.786Z" stroke="#141414" stroke-width="4" mask="url(#path-2-outside-1_839_3533)"/>
<path d="M503.69 62.9545C503.69 53.2818 509.511 46.0909 518.701 46.0909C528.198 46.0909 533.897 54.1727 533.468 63.9727H508.837C509.082 71.0363 512.636 75.8091 518.946 75.8091C523.909 75.8091 526.544 72.6909 527.769 68.8727H532.855C531.078 75.3636 526.176 79.9454 518.946 79.9454C509.695 79.9454 503.69 72.7545 503.69 62.9545ZM528.321 60.0272C527.402 54.1727 524.093 50.2272 518.701 50.2272C513.248 50.2272 509.878 54.1091 509.021 60.0272H528.321Z" stroke="#141414" stroke-width="4" mask="url(#path-2-outside-1_839_3533)"/>
</svg>
