<svg width="166" height="47" viewBox="0 0 166 47" fill="none" xmlns="http://www.w3.org/2000/svg">
<path d="M165.999 45.3005H166V45.3068C166 45.3047 165.999 45.3026 165.999 45.3005H145.678C144.759 40.977 143.839 36.6566 142.919 32.3299C142.919 32.3299 142.853 31.4466 142.063 31.4466C141.273 31.4466 141.402 32.3299 141.402 32.3299V45.2657C141.2 45.3258 122.74 45.3479 122.259 45.2942V0.0236684H141.39V19.2519C141.39 19.2519 141.232 20.227 142.063 20.227C142.894 20.227 142.919 19.2519 142.919 19.2519C143.836 14.9569 144.755 4.33454 145.678 0.0205078H165.703C165.678 0.124803 165.659 0.213296 165.634 0.298629L160.371 23.9199C160.314 24.1096 160.318 24.2802 160.378 24.4667C162.141 29.9817 163.902 38.6572 165.662 44.1722C165.766 44.4977 165.871 44.8201 165.972 45.1456C165.987 45.1915 165.99 45.2402 165.999 45.3005Z" fill="#E7E8EC"/>
<path d="M63.4966 0.0205078H44.3916L44.3948 29.6752C44.3916 31.1511 44.4485 32.6239 44.6444 34.0872C44.8119 35.3577 45.0837 36.6029 45.523 37.8102C46.3384 40.0478 47.688 41.8746 49.6791 43.2051C50.8927 44.0173 52.2201 44.5894 53.6138 45.0129C55.8767 45.7019 58.2028 46.0148 60.5542 46.1823C61.5245 46.2486 62.4979 46.3024 63.4682 46.315C64.8651 46.334 66.2652 46.3182 67.6621 46.2992C68.9927 46.2834 70.3201 46.1854 71.6443 46.0464C72.9338 45.9105 74.2106 45.7145 75.4748 45.4206C76.9476 45.0761 78.3761 44.6052 79.7161 43.8909C81.6914 42.8385 83.2179 41.3404 84.2356 39.3367C84.8361 38.1515 85.228 36.8937 85.4871 35.5947C85.8221 33.9165 85.9644 32.2193 85.9644 30.5127C85.9675 23.5976 85.9644 7.19793 85.9644 0.282826C85.9644 0.206199 85.9589 0.126823 85.953 0.0421362L85.9517 0.0236684H67.3745V0.368159V29.0115C67.3745 29.6846 67.3619 30.3578 67.267 31.0278C67.2133 31.4071 67.1343 31.7832 66.9636 32.1308C66.7235 32.6239 66.3221 32.8957 65.7785 32.9399C65.5572 32.9557 65.336 32.9557 65.1148 32.9399C64.5364 32.8988 64.1097 32.6112 63.8917 32.074C63.7716 31.7864 63.6926 31.4766 63.6325 31.1701C63.4965 30.4528 63.4965 29.7234 63.4966 28.9997L63.4966 28.9514V0.383961V0.0205078Z" fill="#E7E8EC"/>
<path d="M108.434 0.00158691V31.1733H119.878V45.2974H89.2915V0.0521543C89.2915 0.0521543 89.301 0.0395126 89.3073 0.0331917C89.3136 0.0268708 89.32 0.0205498 89.3263 0.0205498C89.3926 0.0142289 89.4622 0.00474745 89.5285 0.00474745C95.8147 0.00474745 102.101 0.00474745 108.434 0.00474745V0.00158691Z" fill="#E7E8EC"/>
<path d="M21.6113 0.0078125C23.1283 0.00781979 24.6452 0.0650093 26.1621 0.137695C27.815 0.216707 29.4617 0.374401 31.0957 0.636719C32.856 0.921159 34.5915 1.31643 36.2412 2.01172C37.2587 2.44152 38.213 2.9789 39.0693 3.68359C40.4567 4.82765 41.3865 6.28112 41.9648 7.96875C42.3504 9.09378 42.5682 10.2539 42.7041 11.4326C42.8969 13.0887 42.9031 14.7517 42.8398 16.4141C42.7766 18.0511 42.5709 19.6723 42.0811 21.2461C41.6291 22.6967 40.9401 24.0145 39.8877 25.127C38.9364 26.1351 37.7989 26.872 36.541 27.4346C35.2769 28.0034 33.9525 28.3828 32.5967 28.6641C31.1429 28.9674 29.6731 29.1573 28.1973 29.29C26.5571 29.4386 24.9138 29.5235 23.2705 29.5488C21.9906 29.5678 20.7135 29.5704 19.4336 29.583H19.1201V45.2939H0.0566406C-0.000194447 45.0837 -0.0257988 0.7189 0.0341797 0.00195312H0.322266C7.41747 0.00195305 14.5161 -0.00482929 21.6113 0.0078125ZM21.4912 8.21777C20.444 8.21779 19.5949 9.06614 19.5947 10.1133V18.6465C19.5947 19.6938 20.4439 20.5429 21.4912 20.543C22.5385 20.543 23.3877 19.6938 23.3877 18.6465V10.1133C23.3875 9.06613 22.5384 8.21777 21.4912 8.21777Z" fill="#E7E8EC"/>
</svg>
