<svg width="321" height="65" viewBox="0 0 321 65" fill="none" xmlns="http://www.w3.org/2000/svg">
<path fill-rule="evenodd" clip-rule="evenodd" d="M119.804 51.6085C119.804 59.0044 113.811 65 106.418 65H13.3859C5.9931 65 3.74204e-05 59.0044 0 51.6085V13.3915C0 5.9956 5.99308 2.31692e-07 13.3859 0H106.418C113.811 0 119.804 5.9956 119.804 13.3915V51.6085ZM35.2125 28.4629C35.2125 23.475 30.9195 19.4316 25.6234 19.4315H16.0337C15.7222 19.4315 15.4696 19.6841 15.4696 19.9958V44.8323C15.4696 45.144 15.7222 45.3965 16.0337 45.3966H24.4953C24.8067 45.3965 25.0594 45.1439 25.0594 44.8323V31.6591C25.0595 31.1409 25.4794 30.7208 25.9973 30.7208C26.4377 30.7209 26.8192 31.0279 26.9137 31.4584L28.0411 36.5999C28.1097 36.9122 28.4245 37.1065 28.7287 37.0085C32.5004 35.7932 35.2124 32.427 35.2125 28.4629ZM60.5967 19.9958C60.5967 19.684 60.3442 19.4315 60.0327 19.4315H52.1351C51.8237 19.4316 51.5711 19.6841 51.5711 19.9958V35.9911C51.571 36.5094 51.1511 36.9294 50.6331 36.9294C50.1928 36.9293 49.8118 36.6223 49.7174 36.1918L46.1376 19.8748C46.0808 19.6159 45.8516 19.4315 45.5866 19.4315H37.4694C37.1579 19.4315 36.9047 19.684 36.9047 19.9958V33.5429C36.9048 40.0896 42.2085 45.3965 48.7507 45.3966C55.293 45.3966 60.5967 40.0896 60.5967 33.5429V19.9958ZM80.2717 37.1923C80.2716 36.8806 80.0191 36.628 79.7076 36.628H74.0983C73.631 36.628 73.2519 36.2488 73.2519 35.7812V19.9984C73.2519 19.6866 72.9994 19.4334 72.6879 19.4334H64.1458C63.8344 19.4335 63.5818 19.6867 63.5818 19.9984V44.8323C63.5818 45.1439 63.8344 45.3965 64.1458 45.3966H79.7076C80.0191 45.3965 80.2717 45.144 80.2717 44.8323V37.1923ZM105.334 20.1802C105.461 19.8135 105.189 19.4315 104.801 19.4315H96.4243C96.1587 19.4316 95.9293 19.6169 95.8733 19.8768L93.6654 30.1297C93.5911 30.4743 93.2864 30.7207 92.9341 30.7208C92.521 30.7207 92.1858 30.3854 92.1857 29.9721V19.9958C92.1857 19.684 91.9331 19.4315 91.6216 19.4315H83.16C82.8486 19.4316 82.5959 19.6841 82.5959 19.9958V44.8323C82.5959 45.1439 82.8486 45.3964 83.16 45.3966H91.6216C91.9331 45.3966 92.1857 45.144 92.1857 44.8323V36.7496C92.1857 36.2258 92.6106 35.8008 93.1341 35.8008C93.5708 35.801 93.9508 36.1 94.0543 36.5247L96.1119 44.9663C96.1736 45.219 96.4003 45.3966 96.6603 45.3966H104.601C104.982 45.3966 105.253 45.0271 105.14 44.6636L101.488 32.9852C101.308 32.409 101.318 31.7902 101.515 31.2197L105.334 20.1802Z" fill="#9687FF"/>
<path d="M144.271 0.75H307.237C314.265 0.75 319.956 6.41828 319.956 13.4023V51.5977C319.956 58.5817 314.265 64.25 307.237 64.25H144.271C137.244 64.2498 131.554 58.5816 131.554 51.5977V13.4023C131.554 6.41843 137.244 0.750242 144.271 0.75Z" stroke="#9687FF" stroke-width="1.5"/>
<path d="M152.47 24.7951H155.099V27.6802C156.212 25.6294 158.066 24.4475 160.629 24.4475C165.079 24.4475 167.978 28.3406 167.978 33.6935C167.978 39.0465 165.079 42.9395 160.629 42.9395C158.066 42.9395 156.212 41.7577 155.099 39.7069V48.4315H152.47V24.7951ZM160.089 40.6802C163.326 40.6802 165.146 37.7256 165.146 33.6935C165.146 29.6614 163.326 26.7069 160.089 26.7069C156.853 26.7069 155.032 29.6614 155.032 33.6935C155.032 37.7256 156.853 40.6802 160.089 40.6802Z" fill="#9687FF"/>
<path d="M176.328 42.9395C172.822 42.9395 170.732 40.6802 170.732 37.2042V24.7951H173.361V36.7524C173.361 39.1855 174.508 40.6106 177.137 40.6106C179.666 40.6106 181.79 38.5251 181.79 35.1187V24.7951H184.42V42.5224H181.79V39.5331C181.014 41.3406 179.396 42.9395 176.328 42.9395Z" fill="#9687FF"/>
<path d="M188.341 17.8433H190.971V42.5224H188.341V17.8433Z" fill="#9687FF"/>
<path d="M206.517 42.5224L200.145 32.8941L197.515 35.362V42.5224H194.885V17.8433H197.515V32.3032L205.438 24.7951H208.641L201.965 31.1213L209.483 42.5224H206.517Z" fill="#9687FF"/>
<path d="M213.947 39.0465V42.5224H210.576V39.0465H213.947Z" fill="#9687FF"/>
<path d="M224.026 42.9395C219.34 42.9395 216.576 40.6454 216.272 36.7871H219.003C219.273 39.7417 221.397 40.7844 224.026 40.7844C226.858 40.7844 227.971 39.2898 227.971 37.6213C227.971 35.6401 226.724 35.1534 223.554 34.3192C220.217 33.4502 216.913 32.755 216.913 29.1748C216.913 26.3941 219.509 24.378 223.554 24.378C227.735 24.378 230.095 26.6374 230.5 29.731H227.802C227.533 27.6802 226.016 26.5331 223.554 26.5331C221.127 26.5331 219.677 27.6802 219.677 29.0358C219.677 30.8433 221.464 31.2951 224.397 32.0598C227.937 32.9636 230.735 33.9021 230.735 37.4475C230.735 40.9582 228.038 42.9395 224.026 42.9395Z" fill="#9687FF"/>
<path d="M233.547 24.7951H236.177V27.6802C237.289 25.6294 239.144 24.4475 241.706 24.4475C246.156 24.4475 249.056 28.3406 249.056 33.6935C249.056 39.0465 246.156 42.9395 241.706 42.9395C239.144 42.9395 237.289 41.7577 236.177 39.7069V48.4315H233.547V24.7951ZM241.167 40.6802C244.403 40.6802 246.224 37.7256 246.224 33.6935C246.224 29.6614 244.403 26.7069 241.167 26.7069C237.93 26.7069 236.109 29.6614 236.109 33.6935C236.109 37.7256 237.93 40.6802 241.167 40.6802Z" fill="#9687FF"/>
<path d="M256.832 42.9395C253.495 42.9395 250.831 40.993 250.831 37.5518C250.831 33.9021 253.562 32.9983 257.878 31.7818C260.608 31.0171 262.463 30.6347 262.463 29.0705C262.463 27.6802 261.114 26.5679 258.552 26.5679C255.99 26.5679 254.304 27.6802 254.102 29.9395H251.371C251.809 26.7764 254.338 24.4475 258.552 24.4475C262.665 24.4475 265.092 26.3593 265.092 29.7657V42.5224H262.564V39.2203C261.923 41.2711 260.069 42.9395 256.832 42.9395ZM257.406 40.854C260.71 40.854 262.564 37.9342 262.564 34.7016V31.1909C262.092 32.3032 260.777 32.8941 258.586 33.5197C255.619 34.354 253.663 35.1882 253.663 37.5518C253.663 39.7069 255.282 40.854 257.406 40.854Z" fill="#9687FF"/>
<path d="M283.592 36.7176C282.715 40.6454 280.052 42.9395 276.107 42.9395C271.118 42.9395 267.814 39.0117 267.814 33.6588C267.814 28.3753 271.084 24.4475 276.074 24.4475C280.052 24.4475 282.715 26.7764 283.592 30.6695H280.794C280.187 28.0973 278.602 26.7069 276.074 26.7069C272.635 26.7069 270.646 29.6267 270.646 33.6588C270.646 37.7256 272.669 40.6802 276.107 40.6802C278.771 40.6802 280.187 39.116 280.794 36.7176H283.592Z" fill="#9687FF"/>
<path d="M285.19 33.6588C285.19 28.3753 288.393 24.4475 293.45 24.4475C298.675 24.4475 301.811 28.862 301.575 34.2149H288.022C288.157 38.0732 290.112 40.6802 293.585 40.6802C296.315 40.6802 297.765 38.977 298.439 36.8914H301.238C300.26 40.4368 297.563 42.9395 293.585 42.9395C288.494 42.9395 285.19 39.0117 285.19 33.6588ZM298.743 32.0598C298.237 28.862 296.417 26.7069 293.45 26.7069C290.449 26.7069 288.595 28.8272 288.123 32.0598H298.743Z" fill="#9687FF"/>
</svg>
