<svg width="166" height="47" viewBox="0 0 166 47" fill="none" xmlns="http://www.w3.org/2000/svg">
<path d="M165.999 45.3005H166V45.3068C166 45.3047 165.999 45.3026 165.999 45.3005H145.678C144.759 40.977 143.839 36.6566 142.919 32.3299C142.919 32.3299 142.853 31.4466 142.063 31.4466C141.273 31.4466 141.402 32.3299 141.402 32.3299V45.2657C141.2 45.3258 122.74 45.3479 122.259 45.2942V0.0236684H141.39V19.2519C141.39 19.2519 141.232 20.227 142.063 20.227C142.894 20.227 142.919 19.2519 142.919 19.2519C143.836 14.9569 144.755 4.33454 145.678 0.0205078H165.703C165.678 0.124803 165.659 0.213296 165.634 0.298629L160.371 23.9199C160.314 24.1096 160.318 24.2802 160.378 24.4667C162.141 29.9817 163.902 38.6572 165.662 44.1722C165.766 44.4977 165.871 44.8201 165.972 45.1456C165.987 45.1915 165.99 45.2402 165.999 45.3005Z" fill="#FF464E"/>
<path d="M63.4966 0.0205078H44.3916L44.3948 29.6752C44.3916 31.1511 44.4485 32.6239 44.6444 34.0872C44.8119 35.3577 45.0837 36.6029 45.523 37.8102C46.3384 40.0478 47.688 41.8746 49.6791 43.2051C50.8927 44.0173 52.2201 44.5894 53.6138 45.0129C55.8767 45.7019 58.2028 46.0148 60.5542 46.1823C61.5245 46.2486 62.4979 46.3024 63.4682 46.315C64.8651 46.334 66.2652 46.3182 67.6621 46.2992C68.9927 46.2834 70.3201 46.1854 71.6443 46.0464C72.9338 45.9105 74.2106 45.7145 75.4748 45.4206C76.9476 45.0761 78.3761 44.6052 79.7161 43.8909C81.6914 42.8385 83.2179 41.3404 84.2356 39.3367C84.8361 38.1515 85.228 36.8937 85.4871 35.5947C85.8221 33.9165 85.9644 32.2193 85.9644 30.5127C85.9675 23.5976 85.9644 7.19793 85.9644 0.282826C85.9644 0.206199 85.9589 0.126823 85.953 0.0421362L85.9517 0.0236684H67.3745V0.368159V29.0115C67.3745 29.6846 67.3619 30.3578 67.267 31.0278C67.2133 31.4071 67.1343 31.7832 66.9636 32.1308C66.7235 32.6239 66.3221 32.8957 65.7785 32.9399C65.5572 32.9557 65.336 32.9557 65.1148 32.9399C64.5364 32.8988 64.1097 32.6112 63.8917 32.074C63.7716 31.7864 63.6926 31.4766 63.6325 31.1701C63.4965 30.4528 63.4965 29.7234 63.4966 28.9997L63.4966 28.9514V0.383961V0.0205078Z" fill="#FF464E"/>
<path d="M108.434 0.00146484V31.1731H119.878V45.2973H89.2915V0.0520323C89.2915 0.0520323 89.301 0.0393906 89.3073 0.0330696C89.3136 0.0267487 89.32 0.0204278 89.3263 0.0204278C89.3926 0.0141068 89.4622 0.00462538 89.5285 0.00462538C95.8147 0.00462538 102.101 0.00462538 108.434 0.00462538V0.00146484Z" fill="#FF464E"/>
<path d="M21.6115 0.00767655C23.1284 0.00768384 24.6454 0.0648733 26.1623 0.137559C27.8152 0.216571 29.4619 0.374265 31.0959 0.636583C32.8562 0.921024 34.5917 1.31629 36.2414 2.01158C37.2589 2.44138 38.2132 2.97876 39.0695 3.68346C40.4569 4.82751 41.3867 6.28099 41.965 7.96861C42.3506 9.09365 42.5684 10.2537 42.7043 11.4325C42.8971 13.0886 42.9032 14.7515 42.84 16.4139C42.7768 18.051 42.5711 19.6721 42.0812 21.246C41.6293 22.6966 40.9403 24.0143 39.8879 25.1268C38.9366 26.135 37.7991 26.8719 36.5412 27.4344C35.2771 28.0033 33.9527 28.3827 32.5969 28.6639C31.1431 28.9673 29.6733 29.1572 28.1975 29.2899C26.5573 29.4384 24.914 29.5234 23.2707 29.5487C21.9908 29.5677 20.7137 29.5702 19.4338 29.5829H19.1203V45.2938H0.0568344C-6.55308e-07 45.0836 -0.025605 0.718765 0.0343735 0.00181718H0.322459C7.41766 0.0018171 14.5163 -0.00496524 21.6115 0.00767655ZM21.4914 8.21764C20.4442 8.21766 19.5951 9.066 19.5949 10.1131V18.6463C19.5949 19.6936 20.4441 20.5428 21.4914 20.5428C22.5387 20.5428 23.3879 19.6936 23.3879 18.6463V10.1131C23.3877 9.06599 22.5386 8.21764 21.4914 8.21764Z" fill="#FF464E"/>
</svg>
