<svg width="1872" height="862" viewBox="0 0 1872 862" fill="none" xmlns="http://www.w3.org/2000/svg">
<path d="M1871.86 850.673H1871.87V850.742C1871.87 850.719 1871.87 850.696 1871.86 850.673H1648.83C1641.65 801.572 1613.69 541.385 1608.53 491.916C1608.53 491.916 1608.77 482.215 1600.09 482.215C1591.41 482.215 1591.86 491.916 1591.86 491.916V850.291C1589.64 850.95 1386.8 851.193 1381.53 850.603L1381.53 0.905186H1591.72V308.366C1591.72 308.366 1592.1 317.154 1599.7 317.154C1607.3 317.154 1608.53 308.366 1608.53 308.366C1614.31 257.781 1641.65 51.4737 1648.83 0.870476H1868.61C1868.33 2.01588 1868.12 2.98773 1867.85 3.92488L1794.16 385.199C1791.81 397.367 1791.74 409.866 1793.96 422.06L1871.56 848.972C1871.73 849.475 1871.77 850.011 1871.86 850.673Z" fill="black"/>
<path d="M697.246 1.00956H487.59L487.625 678.858C487.59 695.064 488.214 711.235 490.365 727.303C492.203 741.253 495.186 754.926 500.006 768.182C508.954 792.752 523.764 812.81 545.614 827.42C558.932 836.339 573.499 842.62 588.794 847.27C613.626 854.835 639.153 858.271 664.957 860.11C675.604 860.839 686.286 861.429 696.934 861.568C712.264 861.776 727.628 861.602 742.958 861.394C757.559 861.221 772.126 860.145 786.658 858.618C800.808 857.126 814.82 854.974 828.693 851.747C844.855 847.964 860.531 842.793 875.237 834.951C896.913 823.395 913.665 806.946 924.833 784.944C931.422 771.93 935.723 758.119 938.567 743.856C942.243 725.429 943.804 706.793 943.804 688.054C943.839 612.124 943.804 79.8195 943.804 3.88989C943.804 3.04837 943.744 2.17667 943.679 1.24663L943.665 1.04426H739.801V4.82686L739.802 623.403C739.802 630.795 739.663 639.185 738.622 646.542C738.033 650.706 737.166 653.837 735.293 657.655C732.657 663.068 726.225 667.051 720.259 667.537C717.832 667.711 719.429 667.711 717.001 667.537C710.654 667.086 703.975 662.929 701.581 657.03C700.263 653.872 699.396 651.47 698.737 648.104C697.244 640.227 697.245 631.262 697.246 623.273L697.246 622.744L697.246 5.00037V1.00956Z" fill="black"/>
<path d="M1190.74 0V621.689C1190.74 632.735 1199.7 641.689 1210.74 641.689H1355.21V849.964H980.864L980.864 0.555332C980.864 0.555332 980.968 0.416501 981.037 0.347084C981.106 0.277668 981.176 0.208251 981.245 0.208251C981.973 0.138834 982.735 0.034709 983.463 0.034709C1052.38 0.034709 1121.3 0.034709 1190.74 0.034709V0Z" fill="black"/>
<path fill-rule="evenodd" clip-rule="evenodd" d="M3.68081 0.887715C81.0963 0.887715 158.547 0.818547 235.962 0.957305C252.514 0.957315 269.066 1.58229 285.618 2.38014C303.653 3.24739 321.619 4.98161 339.447 7.86085C358.654 10.9829 377.586 15.319 395.586 22.9506C406.69 27.6684 417.104 33.566 426.449 41.3018C441.587 53.8594 448.553 67.1362 454.863 85.6604C459.07 98.0099 459.312 114.068 459.312 129.957C459.312 129.957 461.523 411.576 459.312 444.799C457.101 478.022 446.863 495.896 435.381 508.107C425.001 519.173 412.587 527.255 398.863 533.43C385.069 539.674 370.621 543.838 355.827 546.925C339.965 550.255 323.93 552.337 307.826 553.794C289.929 555.424 271.998 556.36 254.066 556.637C240.1 556.846 222.755 556.88 208.789 557.019V666.641V851.913H0.784728C0.164024 849.936 -0.112578 8.55413 0.542609 0.887715H3.68081ZM225.041 106.481C213.614 106.481 203.377 115.8 203.376 127.294V406.183C203.376 417.678 213.614 426.997 225.041 426.997C236.468 426.997 246.706 417.678 246.706 406.183V127.294C246.706 115.799 236.467 106.481 225.041 106.481Z" fill="black"/>
</svg>
