<svg width="378" height="617" viewBox="0 0 378 617" fill="none" xmlns="http://www.w3.org/2000/svg">
<path d="M358 0C369.046 0 378 8.95431 378 20V597C378 608.046 369.046 617 358 617H20C8.95431 617 0 608.046 0 597V20C7.73109e-07 8.95431 8.95431 0 20 0H358ZM165.521 452.138C136.515 452.138 113 477.116 113 507.928V563.718C113 565.53 114.469 567 116.282 567H260.718C262.531 567 264 565.53 264 563.718V514.491C264 512.679 262.53 511.21 260.718 511.21H184.111C181.097 511.21 178.652 508.766 178.652 505.752C178.653 503.19 180.438 500.971 182.941 500.422L212.842 493.861C214.659 493.463 215.79 491.63 215.22 489.86C208.152 467.917 188.575 452.138 165.521 452.138ZM116.282 304.458C114.469 304.458 113 305.928 113 307.74V353.685C113 355.497 114.469 356.967 116.282 356.967H209.302C212.316 356.967 214.761 359.41 214.761 362.424C214.76 364.986 212.975 367.205 210.472 367.754L115.579 388.577C114.073 388.908 113 390.242 113 391.783V439.011C113 440.823 114.469 442.293 116.282 442.293H195.065C233.137 442.293 264 411.437 264 373.375C264 335.313 233.137 304.458 195.065 304.458H116.282ZM216.289 189.993C214.476 189.993 213.006 191.462 213.006 193.274V225.909C213.006 228.628 210.801 230.832 208.082 230.832H116.298C114.485 230.832 113.016 232.301 113.016 234.113V283.809C113.016 285.621 114.485 287.091 116.298 287.091H260.718C262.531 287.091 264 285.621 264 283.809V193.274C264 191.462 262.53 189.993 260.718 189.993H216.289ZM117.356 44.1836C115.224 43.4456 113 45.0284 113 47.2842V96.0176C113 97.5635 114.079 98.8998 115.591 99.2256L175.216 112.07C177.221 112.503 178.652 114.276 178.652 116.326C178.652 118.73 176.703 120.678 174.299 120.679H116.282C114.47 120.679 113 122.148 113 123.96V173.187C113 174.999 114.469 176.469 116.282 176.469H260.718C262.531 176.469 264 174.999 264 173.187V123.96C264 122.148 262.53 120.679 260.718 120.679H213.713C210.667 120.679 208.195 118.209 208.195 115.163C208.196 112.622 209.935 110.41 212.404 109.808L261.495 97.8359C262.965 97.4774 264 96.1604 264 94.6475V48.4482C264 46.2338 261.851 44.6553 259.737 45.3164L191.821 66.5547C188.47 67.6026 184.872 67.5496 181.554 66.4014L117.356 44.1836Z" fill="#141414"/>
</svg>
